<svg xmlns="http://www.w3.org/2000/svg" viewBox="0 0 64 64">
  <defs>
    <linearGradient id="fontify-favicon-gradient" x1="12" y1="8" x2="52" y2="56" gradientUnits="userSpaceOnUse">
      <stop offset="0" stop-color="#3154ff"/>
      <stop offset="1" stop-color="#47c7ff"/>
    </linearGradient>
  </defs>
  <rect width="64" height="64" rx="16" fill="#ffffff"/>
  <path
    fill="url(#fontify-favicon-gradient)"
    d="M20 50c-2.2 0-3.6-1.5-3.2-3.7l5.5-28.7C23.3 12 27.3 9 33.5 9h15.7c2.1 0 3.5 1.4 3.5 3.4 0 2.1-1.4 3.5-3.5 3.5H34.6c-2.4 0-3.8 1.1-4.2 3.3l-1.1 5.6h15.3c2.1 0 3.4 1.4 3.4 3.4s-1.4 3.4-3.4 3.4H28l-2.8 14.7C24.8 48.6 22.6 50 20 50Z"
  />
  <circle cx="45.5" cy="45.5" r="5.5" fill="#47c7ff"/>
</svg>
